<mxfile host="app.diagrams.net" modified="2023-12-11T04:23:40.085Z" agent="Mozilla/5.0 (X11; Linux x86_64) AppleWebKit/537.36 (KHTML, like Gecko) Chrome/109.0.0.0 Safari/537.36" version="22.1.7" etag="-L2aS4H3qMrD_4OLdnli" type="github">
  <diagram name="Page-1" id="4AntzN_zkwkfq1xsoeGU">
    <mxGraphModel>
      <root>
        <mxCell id="0" />
        <mxCell id="1" parent="0" />
      </root>
    </mxGraphModel>
  </diagram>
</mxfile>
